<svg xmlns="http://www.w3.org/2000/svg" width="436.234" height="569" viewBox="0 0 436.234 569">
  <g id="document" transform="translate(-0.109)">
    <path id="Pfad_16" data-name="Pfad 16" d="M.109,66.383V559.516A9.484,9.484,0,0,0,9.594,569H369.961a9.483,9.483,0,0,0,9.48-9.484v-398.3c0-.211-.1-.391-.121-.6a8.942,8.942,0,0,0-.484-2.437c-.105-.3-.18-.6-.312-.895a9.387,9.387,0,0,0-1.9-2.777L281.793,59.68a9.2,9.2,0,0,0-2.789-1.9,8.561,8.561,0,0,0-.871-.312,9.4,9.4,0,0,0-2.457-.492c-.16.027-.348-.074-.547-.074H9.594A9.481,9.481,0,0,0,.109,66.383Zm346.957,85.352H284.609V89.277ZM19.074,75.867h246.57v85.352a9.482,9.482,0,0,0,9.48,9.48h85.352V550.035H19.074Zm0,0" fill="#ed6665"/>
    <path id="Pfad_17" data-name="Pfad 17" d="M398.41,493.133V512.1h28.449a9.481,9.481,0,0,0,9.484-9.48V9.484A9.484,9.484,0,0,0,426.859,0H66.492a9.484,9.484,0,0,0-9.484,9.484V37.934H75.977V18.965h341.4V493.133Zm0,0" fill="#ed6665"/>
    <path id="Pfad_18" data-name="Pfad 18" d="M75.977,189.668h227.6v18.965H75.977Zm0,0" fill="#ed6665"/>
    <path id="Pfad_19" data-name="Pfad 19" d="M75.977,132.766h75.867v18.969H75.977Zm0,0" fill="#ed6665"/>
    <path id="Pfad_20" data-name="Pfad 20" d="M75.977,246.566H227.711v18.969H75.977Zm0,0" fill="#ed6665"/>
    <path id="Pfad_21" data-name="Pfad 21" d="M246.676,246.566h56.9v18.969h-56.9Zm0,0" fill="#ed6665"/>
    <path id="Pfad_22" data-name="Pfad 22" d="M75.977,303.465h227.6v18.969H75.977Zm0,0" fill="#ed6665"/>
    <path id="Pfad_23" data-name="Pfad 23" d="M75.977,417.266h227.6v18.969H75.977Zm0,0" fill="#ed6665"/>
    <path id="Pfad_24" data-name="Pfad 24" d="M161.324,360.367h142.25v18.965H161.324Zm0,0" fill="#ed6665"/>
    <path id="Pfad_25" data-name="Pfad 25" d="M75.977,360.367h66.383v18.965H75.977Zm0,0" fill="#ed6665"/>
    <path id="Pfad_26" data-name="Pfad 26" d="M75.977,474.168H113.91v18.965H75.977Zm0,0" fill="#ed6665"/>
    <path id="Pfad_27" data-name="Pfad 27" d="M132.875,474.168h170.7v18.965h-170.7Zm0,0" fill="#ed6665"/>
  </g>
</svg>
