<svg xmlns="http://www.w3.org/2000/svg" width="246.353" height="44.256" viewBox="0 0 246.353 44.256">
  <g id="Gruppe_1" data-name="Gruppe 1" transform="translate(-667 -529)">
    <g id="bookmark-star" transform="translate(667 527.951)">
      <path id="Pfad_1" data-name="Pfad 1" d="M21.57,2.049a1.794,1.794,0,0,1,3.218,0l5.771,11.695a1.8,1.8,0,0,0,1.352.981L44.817,16.6a1.794,1.794,0,0,1,.994,3.06l-9.338,9.1a1.8,1.8,0,0,0-.517,1.588l2.2,12.855a1.8,1.8,0,0,1-2.6,1.893L24.011,39.03a1.793,1.793,0,0,0-1.67,0L10.8,45.1a1.794,1.794,0,0,1-2.6-1.892l2.2-12.855a1.794,1.794,0,0,0-.517-1.588L.542,19.66a1.794,1.794,0,0,1,.995-3.06l12.908-1.875a1.794,1.794,0,0,0,1.351-.982Z" fill="#f7c544"/>
    </g>
    <g id="bookmark-star-2" data-name="bookmark-star" transform="translate(767 527.951)">
      <path id="Pfad_1-2" data-name="Pfad 1" d="M21.57,2.049a1.794,1.794,0,0,1,3.218,0l5.771,11.695a1.8,1.8,0,0,0,1.352.981L44.817,16.6a1.794,1.794,0,0,1,.994,3.06l-9.338,9.1a1.8,1.8,0,0,0-.517,1.588l2.2,12.855a1.8,1.8,0,0,1-2.6,1.893L24.011,39.03a1.793,1.793,0,0,0-1.67,0L10.8,45.1a1.794,1.794,0,0,1-2.6-1.892l2.2-12.855a1.794,1.794,0,0,0-.517-1.588L.542,19.66a1.794,1.794,0,0,1,.995-3.06l12.908-1.875a1.794,1.794,0,0,0,1.351-.982Z" fill="#f7c544"/>
    </g>
    <g id="bookmark-star-3" data-name="bookmark-star" transform="translate(867 527.951)">
      <path id="Pfad_1-3" data-name="Pfad 1" d="M21.57,2.049a1.794,1.794,0,0,1,3.218,0l5.771,11.695a1.8,1.8,0,0,0,1.352.981L44.817,16.6a1.794,1.794,0,0,1,.994,3.06l-9.338,9.1a1.8,1.8,0,0,0-.517,1.588l2.2,12.855a1.8,1.8,0,0,1-2.6,1.893L24.011,39.03a1.793,1.793,0,0,0-1.67,0L10.8,45.1a1.794,1.794,0,0,1-2.6-1.892l2.2-12.855a1.794,1.794,0,0,0-.517-1.588L.542,19.66a1.794,1.794,0,0,1,.995-3.06l12.908-1.875a1.794,1.794,0,0,0,1.351-.982Z" fill="#f7c544"/>
    </g>
    <g id="bookmark-star-4" data-name="bookmark-star" transform="translate(717 527.951)">
      <path id="Pfad_1-4" data-name="Pfad 1" d="M21.57,2.049a1.794,1.794,0,0,1,3.218,0l5.771,11.695a1.8,1.8,0,0,0,1.352.981L44.817,16.6a1.794,1.794,0,0,1,.994,3.06l-9.338,9.1a1.8,1.8,0,0,0-.517,1.588l2.2,12.855a1.8,1.8,0,0,1-2.6,1.893L24.011,39.03a1.793,1.793,0,0,0-1.67,0L10.8,45.1a1.794,1.794,0,0,1-2.6-1.892l2.2-12.855a1.794,1.794,0,0,0-.517-1.588L.542,19.66a1.794,1.794,0,0,1,.995-3.06l12.908-1.875a1.794,1.794,0,0,0,1.351-.982Z" fill="#f7c544"/>
    </g>
    <g id="bookmark-star-5" data-name="bookmark-star" transform="translate(817 527.951)">
      <path id="Pfad_1-5" data-name="Pfad 1" d="M21.57,2.049a1.794,1.794,0,0,1,3.218,0l5.771,11.695a1.8,1.8,0,0,0,1.352.981L44.817,16.6a1.794,1.794,0,0,1,.994,3.06l-9.338,9.1a1.8,1.8,0,0,0-.517,1.588l2.2,12.855a1.8,1.8,0,0,1-2.6,1.893L24.011,39.03a1.793,1.793,0,0,0-1.67,0L10.8,45.1a1.794,1.794,0,0,1-2.6-1.892l2.2-12.855a1.794,1.794,0,0,0-.517-1.588L.542,19.66a1.794,1.794,0,0,1,.995-3.06l12.908-1.875a1.794,1.794,0,0,0,1.351-.982Z" fill="#f7c544"/>
    </g>
  </g>
</svg>
