<svg xmlns="http://www.w3.org/2000/svg" width="569" height="568.996" viewBox="0 0 569 568.996">
  <g id="dialog" transform="translate(0 -0.145)">
    <path id="Pfad_4" data-name="Pfad 4" d="M66.383,322.574h37.934v66.387a9.482,9.482,0,0,0,16.188,6.7l73.09-73.09h15.039V303.609H189.668a9.488,9.488,0,0,0-6.707,2.777l-59.68,59.68V313.094a9.481,9.481,0,0,0-9.48-9.484H66.383a47.471,47.471,0,0,1-47.414-47.418V66.527A47.473,47.473,0,0,1,66.383,19.109H369.852a47.473,47.473,0,0,1,47.414,47.418v142.25h18.969V66.527A66.459,66.459,0,0,0,369.848.145H66.383A66.458,66.458,0,0,0,0,66.527V256.191A66.458,66.458,0,0,0,66.383,322.574Zm0,0" fill="#ed6665"/>
    <path id="Pfad_5" data-name="Pfad 5" d="M502.617,227.742H293.984A66.461,66.461,0,0,0,227.6,294.125V426.891a66.462,66.462,0,0,0,66.387,66.387H394.375l73.086,73.086a9.48,9.48,0,0,0,16.188-6.7V493.277h18.969A66.461,66.461,0,0,0,569,426.891V294.125A66.461,66.461,0,0,0,502.617,227.742Zm47.418,199.148a47.474,47.474,0,0,1-47.418,47.418H474.168a9.484,9.484,0,0,0-9.484,9.484v52.973L405,477.086a9.479,9.479,0,0,0-6.7-2.777H293.984a47.474,47.474,0,0,1-47.418-47.418V294.125a47.473,47.473,0,0,1,47.418-47.414H502.617a47.467,47.467,0,0,1,47.414,47.414V426.891Zm0,0" fill="#ed6665"/>
    <path id="Pfad_6" data-name="Pfad 6" d="M75.867,76.012H265.535V94.977H75.867Zm0,0" fill="#ed6665"/>
    <path id="Pfad_7" data-name="Pfad 7" d="M303.465,76.012h56.9V94.977h-56.9Zm0,0" fill="#ed6665"/>
    <path id="Pfad_8" data-name="Pfad 8" d="M75.867,132.91h284.5v18.965H75.867Zm0,0" fill="#ed6665"/>
    <path id="Pfad_9" data-name="Pfad 9" d="M208.633,189.809H360.367v18.969H208.633Zm0,0" fill="#ed6665"/>
    <path id="Pfad_10" data-name="Pfad 10" d="M75.867,189.809H170.7v18.969H75.867Zm0,0" fill="#ed6665"/>
    <path id="Pfad_11" data-name="Pfad 11" d="M75.867,246.711H208.633v18.965H75.867Zm0,0" fill="#ed6665"/>
    <path id="Pfad_12" data-name="Pfad 12" d="M284.5,294.125H417.266v18.969H284.5Zm0,0" fill="#ed6665"/>
    <path id="Pfad_13" data-name="Pfad 13" d="M455.2,294.125h56.9v18.969H455.2Zm0,0" fill="#ed6665"/>
    <path id="Pfad_14" data-name="Pfad 14" d="M284.5,351.027H512.1v18.965H284.5Zm0,0" fill="#ed6665"/>
    <path id="Pfad_15" data-name="Pfad 15" d="M284.5,407.926H512.1v18.965H284.5Zm0,0" fill="#ed6665"/>
  </g>
</svg>
